<?xml version="1.0" standalone="no"?>
<!DOCTYPE svg PUBLIC "-//W3C//DTD SVG 20010904//EN"
 "http://www.w3.org/TR/2001/REC-SVG-20010904/DTD/svg10.dtd">
<svg version="1.0" xmlns="http://www.w3.org/2000/svg"
 width="1024.000000pt" height="1024.000000pt" viewBox="0 0 1024.000000 1024.000000"
 preserveAspectRatio="xMidYMid meet">

<g transform="translate(0.000000,1024.000000) scale(0.100000,-0.100000)"
fill="#000000" stroke="none">
<path d="M2075 10233 c-808 -72 -1497 -542 -1845 -1258 -106 -216 -168 -415
-207 -655 -17 -110 -18 -253 -18 -3200 0 -2947 1 -3090 18 -3200 78 -484 295
-915 632 -1255 284 -286 652 -496 1041 -594 283 -71 4 -66 3424 -66 2910 0
3081 1 3190 18 753 118 1374 572 1700 1242 106 216 168 415 207 655 17 110 18
253 18 3200 0 2947 -1 3090 -18 3200 -78 484 -295 915 -632 1255 -284 286
-653 497 -1041 594 -283 71 11 65 -3379 67 -1677 0 -3068 -1 -3090 -3z m2456
-1208 c484 -56 923 -231 1319 -523 210 -156 292 -262 321 -417 63 -335 -235
-645 -573 -597 -101 15 -185 54 -288 137 -312 250 -645 377 -1030 391 -739 29
-1392 -406 -1681 -1117 -97 -237 -124 -390 -116 -643 6 -195 31 -316 106 -506
99 -253 225 -445 421 -641 268 -269 556 -417 940 -485 81 -15 214 -18 915 -24
902 -8 863 -5 1045 -73 273 -103 469 -319 564 -625 26 -83 56 -241 56 -295 l0
-28 -1287 4 c-1270 3 -1290 3 -1423 25 -161 26 -339 69 -470 112 -836 279
-1493 953 -1791 1839 -82 244 -119 477 -119 756 0 409 79 731 282 1143 430
875 1229 1453 2168 1567 148 18 488 18 641 0z m2086 -201 c242 -43 470 -167
611 -335 128 -152 203 -355 222 -603 6 -78 10 -657 10 -1431 0 -1429 -3 -1349
61 -1478 107 -213 309 -344 579 -376 187 -23 303 -74 416 -186 145 -143 250
-392 279 -662 7 -62 7 -63 -21 -74 -165 -62 -626 -106 -924 -88 -268 17 -523
106 -755 262 -126 86 -314 275 -398 403 -108 163 -182 338 -230 546 l-21 93
-3 1977 -3 1978 47 -6 c27 -3 85 -12 130 -20z m-443 -6532 c16 -10 38 -30 50
-45 20 -28 21 -41 26 -440 5 -423 7 -446 46 -461 8 -3 32 -6 53 -6 26 0 44 -7
58 -22 23 -26 43 -61 43 -78 0 -19 -66 -40 -125 -40 -95 0 -171 47 -218 135
-22 39 -22 50 -25 513 l-3 474 33 -7 c18 -4 46 -14 62 -23z m-351 -27 c126
-33 174 -80 147 -145 -23 -54 -67 -63 -143 -30 -107 48 -241 33 -344 -36 -61
-42 -94 -83 -131 -162 -23 -49 -27 -70 -27 -152 0 -102 15 -150 72 -233 81
-117 252 -172 416 -133 40 10 68 11 91 5 36 -10 106 -79 106 -104 0 -26 -152
-67 -274 -73 -176 -8 -294 32 -407 137 -190 179 -228 460 -92 690 116 194 363
294 586 236z m-971 -6 c109 -23 182 -85 213 -179 32 -98 10 -196 -62 -272
l-35 -36 28 -15 c37 -19 86 -72 110 -117 29 -55 26 -190 -5 -254 -33 -66 -91
-122 -160 -155 l-56 -26 -298 -3 -298 -3 3 490 3 490 33 34 c19 19 48 39 65
45 44 14 394 15 459 1z m-3002 -19 c43 -22 64 -54 75 -113 l7 -37 -86 0 -86 0
0 85 c0 84 0 85 25 85 14 0 44 -9 65 -20z m430 -217 l0 -238 238 238 238 238
120 -3 120 -3 -217 -210 c-120 -115 -218 -213 -218 -216 -1 -4 95 -142 213
-307 117 -165 217 -305 220 -311 5 -8 -25 -11 -106 -11 l-113 1 -170 249 c-93
137 -174 249 -178 250 -5 0 -40 -30 -78 -67 l-69 -66 0 -185 0 -185 -40 6
c-51 7 -85 29 -110 70 -19 30 -20 53 -20 458 l0 426 23 34 c25 38 78 69 120
69 l27 0 0 -237z m4320 216 c42 -24 64 -57 74 -111 l7 -38 -86 0 -85 0 0 85
c0 85 0 85 26 85 15 0 43 -9 64 -21z m1058 7 c47 -25 74 -62 79 -110 l6 -46
-82 0 -81 0 0 85 c0 84 0 85 25 85 15 0 38 -6 53 -14z m-5728 -656 l0 -390
-85 0 -85 0 0 390 0 390 85 0 85 0 0 -390z m1573 364 c105 -37 200 -132 238
-239 26 -75 26 -187 -2 -260 -26 -69 -44 -71 -105 -10 -41 41 -45 49 -38 77
31 142 -50 267 -189 293 -101 19 -223 -59 -253 -162 -44 -150 61 -293 215
-293 48 0 53 -2 111 -62 33 -34 60 -63 60 -64 0 -1 -23 -10 -51 -19 -77 -26
-206 -17 -282 19 -156 75 -248 250 -218 414 45 242 286 386 514 306z m337 16
c128 -24 228 -98 284 -210 98 -197 19 -429 -179 -526 -55 -26 -69 -29 -165
-29 -99 0 -110 2 -171 32 -80 39 -150 111 -187 191 -24 50 -27 69 -27 162 0
90 3 111 23 148 22 41 23 42 50 28 15 -8 40 -28 56 -45 28 -29 29 -35 30 -124
1 -84 4 -97 29 -135 42 -64 97 -95 174 -100 84 -6 141 16 191 73 85 96 80 224
-10 315 -45 44 -127 75 -182 68 -27 -4 -38 3 -90 59 l-59 62 29 12 c27 10 99
25 135 28 9 0 40 -4 69 -9z m2840 -380 l0 -390 -85 0 -85 0 0 390 0 390 85 0
85 0 0 -390z m1060 0 l0 -390 -80 0 -80 0 0 390 0 390 80 0 80 0 0 -390z m643
373 c35 -5 38 -8 32 -32 -20 -80 -97 -137 -167 -125 -205 33 -342 -220 -200
-369 58 -62 92 -71 269 -75 l163 -4 -6 -27 c-13 -52 -37 -91 -70 -112 -32 -19
-46 -21 -167 -17 -117 3 -138 6 -188 29 -193 91 -282 324 -195 514 49 108 163
201 276 225 44 9 177 6 253 -7z m-1048 -20 c54 -28 99 -78 127 -138 22 -48 23
-63 26 -327 l3 -278 -28 0 c-41 0 -95 32 -118 71 -18 30 -21 58 -26 229 -3
123 -10 206 -18 225 -39 93 -141 130 -236 86 -51 -23 -78 -53 -107 -116 -20
-46 -22 -68 -26 -272 l-4 -223 -79 0 -79 0 0 381 c0 358 1 380 18 375 9 -3 29
-8 44 -12 32 -7 85 -63 94 -100 l6 -25 18 29 c25 41 82 82 143 104 69 25 185
20 242 -9z"/>
<path d="M4460 1975 l0 -147 173 4 c191 3 223 12 252 68 19 38 19 113 -1 151
-26 51 -68 62 -256 67 l-168 4 0 -147z"/>
<path d="M4460 1515 l0 -167 188 4 c209 3 234 10 279 78 30 43 32 131 4 176
-36 59 -74 69 -283 72 l-188 4 0 -167z"/>
</g>
</svg>
